# xmcd
#
# Track frame offsets:
#	150
#	18994
#	30355
#	45811
#	59219
#	69759
#	82428
#	94118
#	106419
#	120453
#	133368
#	146031
#	158944
#	169908
#
# Disc length: 2443 seconds
# Revision: 0
# Processed by: cddbd v1.5.2PL0 Copyright (c) Steve Scherf et al.
# Submitted via: dBpowerAMP V12.0
#
DISCID=c109890e
DTITLE=Noel Poppa Riley - Up Near My Home Town
DYEAR=2003
DGENRE=Country
TTITLE0=Up Near My Home Town
TTITLE1=Gheisha Girl
TTITLE2=Nightwatch Lullaby
TTITLE3=Seven Spanish Angels
TTITLE4=Pinegrove
TTITLE5=Single Yellow Rose
TTITLE6=Red River Valley
TTITLE7=Old 97
TTITLE8=Silver Wings
TTITLE9=Old Gramaphone
TTITLE10=Angel Jodie
TTITLE11=I'm Just Me
TTITLE12=Mysteries of Life
TTITLE13=I Need to Know
EXTD=
EXTT0=
EXTT1=
EXTT2=
EXTT3=
EXTT4=
EXTT5=
EXTT6=
EXTT7=
EXTT8=
EXTT9=
EXTT10=
EXTT11=
EXTT12=
EXTT13=
PLAYORDER=
